# xmcd
#
# Track frame offsets: 
#        150
#        25726
#        47956
#        72520
#        92418
#        114326
#        136004
#        158135
#        181975
#        206170
#        228324
#
# Disc length: 3673 seconds
#
# Revision: 0
# Processed by: cddbd v1.5.1PL0 Copyright (c) Steve Scherf et al.
# Submitted via: ExactAudioCopy v0.95b2
#
DISCID=8d0e570b
DTITLE=Чернусь - Он
DYEAR=2005
DGENRE=Blues
TTITLE0=Флоренция
TTITLE1=Bonnie and Clyde
TTITLE2=Это мы
TTITLE3=Любовь на Лубянке
TTITLE4=Vox Populi (Во всем виноват Чубайс)
TTITLE5=Мадригал (Простая песня)
TTITLE6=Море
TTITLE7=Los Dimas
TTITLE8=С Одесского кичмана
TTITLE9=Листопад
TTITLE10=Говнорок
EXTD=
EXTT0=
EXTT1=
EXTT2=
EXTT3=
EXTT4=
EXTT5=
EXTT6=
EXTT7=
EXTT8=
EXTT9=
EXTT10=
PLAYORDER=
